<svg width="21" height="21" viewBox="0 0 21 21" fill="none" xmlns="http://www.w3.org/2000/svg">
<path d="M18.4238 4.66772C17.3624 4.10986 16.1245 3.99019 14.9759 4.33439C14.92 3.16613 14.4165 2.06422 13.5699 1.25721C12.7233 0.450193 11.5986 0 10.429 0C9.25941 0 8.13469 0.450193 7.28811 1.25721C6.44153 2.06422 5.93807 3.16613 5.88214 4.33439C4.7366 3.9894 3.50231 4.09754 2.43422 4.63647C1.64765 5.0499 0.999283 5.68449 0.569071 6.462C0.13886 7.23952 -0.0543815 8.12594 0.013178 9.01197C0.0807376 9.89799 0.406143 10.7449 0.949266 11.4482C1.49239 12.1515 2.22948 12.6804 3.06964 12.9698C2.53337 13.7329 2.24265 14.6413 2.2363 15.574C2.24093 15.8359 2.2653 16.097 2.30922 16.3552C2.48464 17.4131 3.03037 18.3741 3.84895 19.0668C4.66753 19.7594 5.70567 20.1386 6.77797 20.1365C6.99993 20.1517 7.22267 20.1517 7.44464 20.1365C8.63529 19.9489 9.70492 19.3019 10.4238 18.3344C11.1502 19.2863 12.2188 19.9177 13.403 20.0948C13.6249 20.11 13.8477 20.11 14.0696 20.0948C14.901 20.0938 15.7162 19.8647 16.4264 19.4323C17.1365 18.9999 17.7143 18.3809 18.0968 17.6427C18.4793 16.9045 18.6519 16.0755 18.5957 15.246C18.5394 14.4165 18.2566 13.6184 17.778 12.9386C18.6222 12.6542 19.3642 12.1278 19.9116 11.4249C20.4589 10.722 20.7874 9.87364 20.8563 8.98543C20.9251 8.09723 20.7312 7.20839 20.2987 6.42956C19.8662 5.65072 19.2142 5.01629 18.4238 4.60522V4.66772ZM8.69464 2.64689C9.15999 2.20122 9.77946 1.95243 10.4238 1.95243C11.0681 1.95243 11.6876 2.20122 12.153 2.64689C12.5083 3.00271 12.7495 3.45628 12.846 3.94977C12.9425 4.44326 12.8898 4.9543 12.6946 5.41772L12.4238 6.03231L11.7363 6.63647C11.3136 6.49139 10.8706 6.41404 10.4238 6.40731C9.84627 6.40786 9.27516 6.52847 8.74672 6.76147L8.16339 5.41772C7.96123 4.95635 7.90378 4.4445 7.99863 3.94979C8.09348 3.45508 8.33617 3.00078 8.69464 2.64689ZM2.34047 9.77189C2.10792 9.26019 2.05695 8.68445 2.19598 8.13985C2.335 7.59525 2.6557 7.1144 3.10506 6.77677C3.55442 6.43914 4.10554 6.26496 4.66731 6.28301C5.22908 6.30107 5.76788 6.51027 6.19464 6.87606L6.70505 7.32397L7.06964 8.15731C6.54781 8.85549 6.26309 9.70234 6.25714 10.574C6.24478 10.73 6.24478 10.8867 6.25714 11.0427H5.68422L4.80922 11.1261C4.30875 11.1789 3.80409 11.0775 3.36285 10.8354C2.92162 10.5934 2.5649 10.2223 2.34047 9.77189ZM9.21547 16.1052C9.09007 16.6613 8.77687 17.1572 8.32861 17.5093C7.88036 17.8615 7.32444 18.0484 6.75448 18.0387C6.18452 18.0289 5.63534 17.823 5.19944 17.4556C4.76354 17.0883 4.46754 16.5819 4.3613 16.0219C4.35131 15.8762 4.35131 15.7301 4.3613 15.5844C4.36508 15.161 4.47955 14.746 4.69335 14.3805C4.90715 14.015 5.21283 13.7118 5.58005 13.5011L6.1113 13.1261L7.05922 13.0219C7.65667 13.853 8.53917 14.4352 9.53839 14.6573L9.21547 16.1052ZM10.4238 12.6573C10.0118 12.6573 9.60897 12.5351 9.26636 12.3062C8.92376 12.0773 8.65674 11.7519 8.49905 11.3712C8.34137 10.9906 8.30011 10.5717 8.3805 10.1675C8.46089 9.76341 8.6593 9.39219 8.95066 9.10083C9.24202 8.80947 9.61324 8.61106 10.0174 8.53067C10.4215 8.45028 10.8404 8.49154 11.2211 8.64922C11.6017 8.80691 11.9271 9.07393 12.156 9.41654C12.3849 9.75914 12.5071 10.1619 12.5071 10.574C12.5071 11.1265 12.2876 11.6564 11.8969 12.0471C11.5062 12.4378 10.9763 12.6573 10.4238 12.6573ZM16.4863 16.0115C16.3788 16.6471 16.026 17.215 15.5039 17.593C14.9817 17.971 14.332 18.1287 13.6946 18.0323C13.1924 17.9615 12.7238 17.7391 12.3515 17.3947C11.9792 17.0503 11.7209 16.6004 11.6113 16.1052L11.4655 15.4802L11.6842 14.5219C12.6452 14.2089 13.4596 13.5574 13.9759 12.6886L14.4967 13.0011H14.5905L15.278 13.4073C15.7246 13.6624 16.0809 14.0501 16.2974 14.5167C16.5139 14.9833 16.5799 15.5057 16.4863 16.0115ZM18.5071 9.76147C18.3023 10.1755 17.9862 10.5244 17.5944 10.7691C17.2025 11.0137 16.7503 11.1446 16.2884 11.1469H16.0384L15.3717 11.0427L14.5905 10.6156C14.589 9.60284 14.2187 8.62524 13.5488 7.86564L13.9967 7.48022L14.653 6.87606C15.0809 6.49558 15.6279 6.27571 16.2001 6.25411C16.7723 6.2325 17.3343 6.4105 17.7897 6.75762C18.2452 7.10474 18.5658 7.5994 18.6967 8.15689C18.8275 8.71438 18.7605 9.30003 18.5071 9.81356V9.76147Z" fill="black"/>
</svg>
