<svg width="25" height="25" viewBox="0 0 25 25" fill="none" xmlns="http://www.w3.org/2000/svg">
<path d="M24.15 2.84588L16.65 0.0698165H16.5625C16.5043 0.0633227 16.4457 0.0633227 16.3875 0.0698165H16.1H15.9375H15.85L8.75 2.77648L1.65 0.0698165C1.46202 0.000986081 1.26201 -0.017289 1.06642 0.0164949C0.870838 0.0502789 0.685274 0.135156 0.525004 0.264141C0.363452 0.391863 0.231585 0.560435 0.140298 0.755931C0.04901 0.951427 0.000921192 1.16824 4.16692e-06 1.38845V20.8209C-0.000672285 21.1119 0.0810278 21.3958 0.233557 21.6324C0.386085 21.869 0.601728 22.0464 0.850004 22.1395L8.35 24.9156C8.60181 25.0068 8.87319 25.0068 9.125 24.9156L16.25 22.2783L23.35 24.985C23.4827 25.005 23.6173 25.005 23.75 24.985C24.0114 24.9891 24.2665 24.8963 24.475 24.7213C24.6365 24.5936 24.7684 24.425 24.8597 24.2295C24.951 24.034 24.9991 23.8172 25 23.597V4.16451C25.0007 3.87352 24.919 3.58965 24.7664 3.35303C24.6139 3.11641 24.3983 2.939 24.15 2.84588ZM7.5 21.6676L2.5 19.8215V3.31781L7.5 5.1639V21.6676ZM15 19.8215L10 21.6676V5.1639L15 3.31781V19.8215ZM22.5 21.6676L17.5 19.8215V3.31781L22.5 5.1639V21.6676Z" fill="black"/>
</svg>
