<svg width="21" height="19" viewBox="0 0 21 19" fill="none" xmlns="http://www.w3.org/2000/svg">
<path d="M15.625 8.33333H14.5833C14.3071 8.33333 14.0421 8.44308 13.8468 8.63843C13.6514 8.83378 13.5417 9.09873 13.5417 9.375C13.5417 9.65127 13.6514 9.91622 13.8468 10.1116C14.0421 10.3069 14.3071 10.4167 14.5833 10.4167H15.625C15.9013 10.4167 16.1662 10.3069 16.3616 10.1116C16.5569 9.91622 16.6667 9.65127 16.6667 9.375C16.6667 9.09873 16.5569 8.83378 16.3616 8.63843C16.1662 8.44308 15.9013 8.33333 15.625 8.33333ZM15.625 12.5H14.5833C14.3071 12.5 14.0421 12.6097 13.8468 12.8051C13.6514 13.0004 13.5417 13.2654 13.5417 13.5417C13.5417 13.8179 13.6514 14.0829 13.8468 14.2782C14.0421 14.4736 14.3071 14.5833 14.5833 14.5833H15.625C15.9013 14.5833 16.1662 14.4736 16.3616 14.2782C16.5569 14.0829 16.6667 13.8179 16.6667 13.5417C16.6667 13.2654 16.5569 13.0004 16.3616 12.8051C16.1662 12.6097 15.9013 12.5 15.625 12.5ZM9.375 6.25H15.625C15.9013 6.25 16.1662 6.14025 16.3616 5.9449C16.5569 5.74955 16.6667 5.4846 16.6667 5.20833C16.6667 4.93207 16.5569 4.66711 16.3616 4.47176C16.1662 4.27641 15.9013 4.16667 15.625 4.16667H9.375C9.09873 4.16667 8.83378 4.27641 8.63843 4.47176C8.44308 4.66711 8.33333 4.93207 8.33333 5.20833C8.33333 5.4846 8.44308 5.74955 8.63843 5.9449C8.83378 6.14025 9.09873 6.25 9.375 6.25ZM19.7917 0H5.20833C4.93207 0 4.66711 0.109747 4.47176 0.305097C4.27641 0.500447 4.16667 0.765399 4.16667 1.04167V4.16667H1.04167C0.765399 4.16667 0.500447 4.27641 0.305097 4.47176C0.109747 4.66711 0 4.93207 0 5.20833V15.625C0 16.4538 0.32924 17.2487 0.915291 17.8347C1.50134 18.4208 2.2962 18.75 3.125 18.75H16.6667C17.7717 18.75 18.8315 18.311 19.6129 17.5296C20.3943 16.7482 20.8333 15.6884 20.8333 14.5833V1.04167C20.8333 0.765399 20.7236 0.500447 20.5282 0.305097C20.3329 0.109747 20.0679 0 19.7917 0ZM4.16667 15.625C4.16667 15.9013 4.05692 16.1662 3.86157 16.3616C3.66622 16.5569 3.40127 16.6667 3.125 16.6667C2.84873 16.6667 2.58378 16.5569 2.38843 16.3616C2.19308 16.1662 2.08333 15.9013 2.08333 15.625V6.25H4.16667V15.625ZM18.75 14.5833C18.75 15.1359 18.5305 15.6658 18.1398 16.0565C17.7491 16.4472 17.2192 16.6667 16.6667 16.6667H6.0625C6.18377 16.3326 6.24718 15.9804 6.25 15.625V2.08333H18.75V14.5833ZM9.375 10.4167H10.4167C10.6929 10.4167 10.9579 10.3069 11.1532 10.1116C11.3486 9.91622 11.4583 9.65127 11.4583 9.375C11.4583 9.09873 11.3486 8.83378 11.1532 8.63843C10.9579 8.44308 10.6929 8.33333 10.4167 8.33333H9.375C9.09873 8.33333 8.83378 8.44308 8.63843 8.63843C8.44308 8.83378 8.33333 9.09873 8.33333 9.375C8.33333 9.65127 8.44308 9.91622 8.63843 10.1116C8.83378 10.3069 9.09873 10.4167 9.375 10.4167ZM9.375 14.5833H10.4167C10.6929 14.5833 10.9579 14.4736 11.1532 14.2782C11.3486 14.0829 11.4583 13.8179 11.4583 13.5417C11.4583 13.2654 11.3486 13.0004 11.1532 12.8051C10.9579 12.6097 10.6929 12.5 10.4167 12.5H9.375C9.09873 12.5 8.83378 12.6097 8.63843 12.8051C8.44308 13.0004 8.33333 13.2654 8.33333 13.5417C8.33333 13.8179 8.44308 14.0829 8.63843 14.2782C8.83378 14.4736 9.09873 14.5833 9.375 14.5833Z" fill="black"/>
</svg>
